<svg width="427" height="120" viewBox="0 0 427 120" fill="none" xmlns="http://www.w3.org/2000/svg">
<path d="M77.2483 113.57C71.7353 120.763 58.5683 117.715 51.851 113.998C42.8589 109.024 38.5502 99.2634 35.874 90.1447C35.2317 87.9787 34.5359 82.9781 32.1273 81.9887C28.2467 80.3842 28.5411 86.0534 28.6482 88.2996C28.9158 93.2734 28.5947 97.7659 27.6045 102.686C26.3466 108.997 24.286 116.725 17.0869 118.25C12.0824 119.319 7.82721 117.287 5.23127 112.955C0.146455 104.531 0.895787 93.006 0.788738 83.5397C0.628165 67.3613 1.08313 46.1557 2.04656 30.0041C2.31419 25.3244 2.95648 18.9333 6.81023 15.6441C10.8781 12.1678 18.0236 12.3817 22.252 15.2965C26.641 18.3182 26.2931 24.121 26.4537 28.8542C26.6946 35.4058 26.2663 42.0376 27.2565 48.5624C27.8186 52.2259 30.8694 58.8577 34.2147 53.0549C41.4673 40.4331 39.4333 12.6224 60.7361 14.1199C72.6452 14.9488 69.3 28.7205 65.5265 35.7801C61.191 43.9094 58.3274 53.3223 53.6173 61.1307C49.1213 68.5914 51.2087 73.7525 56.2935 80.6516C62.3953 88.9146 68.283 92.284 75.0271 97.8462C79.5766 101.59 80.9415 108.81 77.2751 113.597L77.2483 113.57Z" fill="#1B4D3E"/>
<path d="M154.565 63.4304C153.467 80.5981 139.926 100.012 127.107 112.794C121.165 118.731 121.701 120.71 120.416 119.212C117.526 115.843 114.154 112.875 110.327 110.602C61.6463 81.5875 70.2102 10.59 117.82 11.1248C145.947 11.4457 156.304 35.7801 154.538 63.4304H154.565ZM129.007 68.5379C129.756 49.632 127.508 37.6252 114.85 37.6252C102.967 37.6252 102.111 59.8471 105.67 70.8376C107.222 75.7045 110.22 83.9675 115.572 85.9731C125.046 89.5029 128.766 75.2232 129.034 68.5379H129.007Z" fill="#1B4D3E"/>
<path d="M264.102 63.0026C262.148 77.8438 260.168 82.7909 252.3 97.6055C245.716 110.013 234.744 114.827 218.472 117.233C209.052 118.624 195.136 118.062 186.813 113.73C166.5 103.194 163.717 76.3998 163.717 59.6867C163.717 49.7925 163.717 61.3446 163.717 46.4766C163.717 34.9512 178.409 32.1701 185.368 38.2403C191.175 43.2944 195.43 69.4204 203.111 79.7959C207.152 85.2511 215.234 85.6255 219.784 80.5982C228.482 70.9446 235.119 46.9579 242.478 39.925C254.628 28.3194 266.189 47.4927 264.129 63.0026H264.102Z" fill="#4CA04C"/>
<path d="M174.074 30.0309C170.943 30.0309 168.829 27.5172 169.926 25.1907C176.777 10.6703 194.333 0.348267 214.913 0.348267C235.493 0.348267 253.049 10.6703 259.9 25.1907C260.998 27.5172 258.857 30.0309 255.752 30.0309C254.039 30.0309 253.023 28.9612 251.738 28.0253C234.61 15.1896 230.917 10.7505 214.913 10.7505C198.909 10.7505 189.328 18.1578 178.088 28.0253C176.911 29.0414 175.787 30.0309 174.074 30.0309Z" fill="#4CA04C"/>
<path d="M341.338 104.933C339.25 115.495 316.369 117.474 306.815 118.544C267.474 122.929 277.483 79.689 279.196 51.5841C280.32 44.0966 280.32 35.0582 283.21 28.052C289.767 12.1411 319.205 11.9539 332.908 15.9116C339.277 17.7567 341.231 28.2124 337.457 34.042C331.168 43.856 314.683 35.2988 306.868 39.3902C304.807 40.4599 304.005 43.5618 303.764 46.6905C303.416 51.183 304.379 57.3602 308.875 56.9858C313.719 56.5847 316.69 56.7184 316.69 56.7184C318.055 56.5045 319.42 56.5045 320.704 56.7452C330.285 58.4833 330.446 72.5224 320.891 74.4745C319.767 74.6884 318.536 74.8221 317.145 74.8221L309.277 73.2444C303.416 72.5491 299.107 80.6517 301.649 85.9732C303.683 90.1448 308.26 92.4445 312.809 91.5086C319.232 90.1715 330.66 87.23 335.745 90.332C339.839 92.8456 342.328 100.066 341.365 104.933H341.338Z" fill="#1B4D3E"/>
<path d="M425.451 108.516C423.23 115.495 419.002 119.132 411.963 118.169C405.754 117.34 401.499 113.623 398.475 108.034C395.21 102.018 393.471 95.2522 390.018 89.289C387.877 85.572 378.35 74.1001 376.53 84.9302C374.951 94.3163 382.204 107.259 374.764 114.907C371.178 118.597 366.253 119.186 361.731 117.848C343.559 112.473 345.834 86.5347 346.878 71.9875C348.082 54.8197 344.87 32.0364 358.974 19.0937C370.91 8.15658 391.196 9.6006 404.523 17.0881C416.593 23.8803 424.889 42.6258 416.085 55.1139C411.214 62.0398 403.48 64.0187 410.786 73.1106C415.871 79.4215 423.203 88.7007 425.505 97.9264C426.415 101.51 426.522 105.12 425.451 108.516ZM378.564 38.481C373.881 42.1445 371.981 61.1574 380.812 60.8365C385.683 60.6493 389.349 52.0922 389.804 48.2147C390.527 41.7166 386.191 32.5177 378.564 38.5077V38.481Z" fill="#1B4D3E"/>
</svg>
